<svg xmlns="http://www.w3.org/2000/svg" width="209" height="22" viewBox="0 0 209 22"><g><g><path fill="#ff3a2d" d="M191.807 8.49c-1.857 1.236-3.25 1.911-4.267 2.28h5.826c1.352-2.183 3.654-1.4 3.654-1.4 5.01 1.218 11.98 1.736 11.98 1.736-6.278.637-10.31 1.55-12.413 2.07-1.709.419-2.866-1.27-3.238-1.918h-5.726c1.009.374 2.38 1.047 4.184 2.25 4.751 3.165 7.372 7.396 7.69 8.49 0 0-2.996-3.53-8.296-5.112 0 0-4.26-.852-1.842-3.926 0 0-1.037-1.346-3.28-1.761-.116.612-.61 1.073-1.212 1.114v1.013s2.188.64 1.699 2.586c-.49 1.948-1.556 2.647-1.815 5.57 0 0-1.123-1.735-1.267-4.474-.143-2.74 1.124-3.56 1.124-3.56v-1.143c-.65-.092-1.152-.671-1.152-1.382 0-.711.502-1.291 1.152-1.382v-.99s-1.267-.822-1.124-3.562c.144-2.738 1.267-4.474 1.267-4.474.26 2.922 1.324 3.623 1.815 5.571.49 1.947-1.7 2.586-1.7 2.586v.862c.65.044 1.168.58 1.227 1.263 2.234-.42 3.266-1.759 3.266-1.759-2.419-3.075 1.842-3.926 1.842-3.926C196.501 3.53 199.497 0 199.497 0c-.318 1.096-2.939 5.327-7.69 8.491zM0 9.85h182.885v1.993H0z"/></g></g></svg>