<svg xmlns="http://www.w3.org/2000/svg" width="23" height="23" viewBox="0 0 23 23"><g><g><path fill="#00c5d2" d="M11.37 6.53s.233-2.093-.908-2.093c-.845 0-.676-.845-.676-.845s.063-1.12-1.353-.612c0 0 .38-1.1 1.458-.445 0 0 .275-.275.19-.464 0 0 .719.168.635 1.056 0 0 .274.634.359-.064.084-.697-.592-1.184-.592-1.184s-.296-.422.17-.887c0 0 .063.296.253.38 0 0-.317-.316.592-1.373l.005.01c.908 1.057.591 1.375.591 1.375.19-.085.254-.38.254-.38.465.464.17.886.17.886s-.677.487-.592 1.184c.084.698.359.064.359.064-.085-.888.634-1.057.634-1.057-.085.19.19.465.19.465 1.078-.656 1.458.443 1.458.443-1.416-.507-1.353.613-1.353.613s.17.845-.676.845c-1.14 0-.908 2.093-.908 2.093s-.16.096-.26-.01zm-4.84 5.098s-2.091-.232-2.091.908c0 .846-.846.677-.846.677s-1.12-.062-.613 1.353c0 0-1.099-.38-.444-1.459 0 0-.275-.274-.465-.19 0 0 .17-.718 1.057-.633 0 0 .634-.275-.064-.36-.697-.085-1.183.592-1.183.592s-.423.296-.888-.17c0 0 .296-.062.38-.252 0 0-.316.316-1.373-.592l.01-.006c1.057-.908 1.375-.59 1.375-.59-.085-.191-.38-.254-.38-.254.464-.466.887-.17.887-.17s.486.676 1.183.592c.697-.085.064-.36.064-.36-.888.086-1.057-.633-1.057-.633.19.084.465-.191.465-.191-.655-1.077.443-1.458.443-1.458-.507 1.416.613 1.353.613 1.353s.846-.17.846.676c0 1.141 2.092.909 2.092.909s.095.158-.01.258zm5.1 4.84s-.233 2.093.908 2.093c.846 0 .676.845.676.845s-.063 1.12 1.353.613c0 0-.38 1.098-1.458.444 0 0-.275.274-.19.464 0 0-.719-.168-.634-1.057 0 0-.275-.633-.36.064-.084.698.592 1.183.592 1.183s.296.424-.169.889c0 0-.063-.297-.254-.38 0 0 .317.316-.591 1.373l-.005-.01c-.91-1.057-.592-1.374-.592-1.374-.19.084-.254.38-.254.38-.465-.466-.169-.888-.169-.888s.676-.486.592-1.183c-.085-.697-.36-.063-.36-.063.085.887-.633 1.056-.633 1.056.084-.19-.19-.465-.19-.465-1.078.655-1.459-.443-1.459-.443 1.416.506 1.353-.613 1.353-.613s-.17-.846.676-.846c1.141 0 .909-2.092.909-2.092s.158-.095.259.01zm4.84-5.098s2.092.232 2.092-.909c0-.846.845-.677.845-.677s1.12.064.613-1.352c0 0 1.1.38.444 1.458 0 0 .275.275.465.19 0 0-.169.719-1.057.635 0 0-.634.274.064.359.697.084 1.183-.593 1.183-.593s.423-.295.888.17c0 0-.296.064-.38.254 0 0 .316-.318 1.373.59l-.01.007c-1.057.908-1.374.592-1.374.592.084.19.38.253.38.253-.465.465-.887.169-.887.169s-.487-.677-1.184-.592c-.698.085-.063.36-.063.36.888-.085 1.057.633 1.057.633-.19-.084-.466.19-.466.19.656 1.079-.443 1.459-.443 1.459.507-1.415-.613-1.353-.613-1.353s-.845.17-.845-.677c0-1.14-2.093-.908-2.093-.908s-.095-.158.01-.258zM9.64 8.12c.328.549.029.95-.193 1.026.162-.01.542.03 1.038.477.533.479-.015.801-.015.801s.182.18.37.316l-.133.133c-.136-.187-.317-.37-.317-.37s-.315.554-.794.022c-.455-.506-.49-.894-.48-1.05a.207.207 0 0 0 .01-.078s-.007.027-.01.077c-.07.223-.475.531-1.028.2-.621-.373-.621-.835-.621-.835.213.177.47.027.47.027-.905-.16-1.384-.87-1.402-1.136-.018-.267.479-.071.479-.071-.657-.368-.916-.907-1.01-1.321a.411.411 0 0 1-.478-.404.41.41 0 1 1 .804.11c.411.098.936.36 1.296 1.004 0 0-.196-.498.07-.48.267.018.977.497 1.136 1.403 0 0 .151-.258-.026-.47 0 0 .46 0 .834.62zM9.43 9.15c-.043.003-.067.009-.067.009a.177.177 0 0 0 .067-.01zm-1.308 4.22c.546-.327.946-.032 1.025.189-.007-.165.035-.543.478-1.035.48-.532.8.016.8.016s.181-.182.317-.37l.133.132c-.188.137-.37.317-.37.317s.554.314.022.794c-.506.456-.894.49-1.05.481a.172.172 0 0 0-.077-.01s.027.007.076.01c.223.07.531.475.199 1.028-.373.62-.834.62-.834.62.178-.212.027-.469.027-.469-.16.905-.87 1.384-1.136 1.402-.267.018-.071-.479-.071-.479a1.99 1.99 0 0 1-1.321 1.009.41.41 0 1 1-.294-.326c.098-.41.36-.936 1.003-1.295 0 0-.497.195-.479-.071.018-.267.497-.976 1.402-1.136 0 0-.257-.15-.47.027 0 0 0-.46.62-.834zm1.03.215c.002.04.008.062.008.062a.17.17 0 0 0-.009-.062zm4.219 1.302c-.327-.546-.031-.947.19-1.025-.164.007-.542-.033-1.035-.477-.533-.48.015-.802.015-.802s-.182-.18-.37-.315l.133-.133c.136.187.316.37.316.37s.315-.555.794-.023c.455.507.49.894.481 1.05a.203.203 0 0 0-.01.078s.007-.027.01-.077c.07-.222.474-.531 1.028-.199.621.373.621.834.621.834-.213-.177-.47-.027-.47-.027.905.16 1.384.87 1.402 1.137.017.266-.48.07-.48.07.658.368.917.908 1.01 1.322a.41.41 0 1 1-.326.293c-.41-.098-.935-.36-1.295-1.003 0 0 .195.497-.07.48-.267-.018-.977-.498-1.137-1.403 0 0-.15.258.027.47 0 0-.461.001-.834-.62zm.214-1.029a.475.475 0 0 0 .062-.009.187.187 0 0 0-.062.01zm1.303-4.22c-.546.328-.948.03-1.025-.19.008.162-.032.542-.477 1.036-.48.532-.801-.016-.801-.016s-.18.183-.317.37l-.132-.132c.188-.136.37-.316.37-.316s-.555-.316-.022-.795c.505-.455.893-.49 1.05-.48a.217.217 0 0 0 .076.01s-.026-.007-.076-.01c-.222-.07-.53-.475-.199-1.028.373-.621.835-.621.835-.621-.178.213-.027.47-.027.47.16-.905.87-1.385 1.136-1.402.266-.019.07.48.07.48.368-.658.907-.917 1.322-1.01a.411.411 0 0 1 .404-.48.41.41 0 1 1-.11.805c-.099.411-.36.936-1.004 1.295 0 0 .497-.194.48.071-.018.267-.497.977-1.403 1.136 0 0 .258.152.47-.026 0 0 .002.46-.62.834zm-1.028-.211c-.004-.042-.009-.065-.009-.065a.183.183 0 0 0 .009.065zm-2.322 1.157a.954.954 0 1 1 0 1.907.954.954 0 0 1 0-1.907z"/></g></g></svg>