<svg xmlns="http://www.w3.org/2000/svg" width="269" height="28" viewBox="0 0 269 28"><g><g><path fill="#00c5d2" d="M30.154 15.867v.01c-1.29-.056-1.497-.743-1.573-1.612-2.885.535-4.208 2.238-4.208 2.238 3.125 3.917-2.38 4.994-2.38 4.994C15.147 23.512 11.276 28 11.276 28c.41-1.397 3.797-6.81 9.935-10.842 2.4-1.574 4.2-2.953 5.513-2.953h-.107c-1.304-1.269-3.076-1.595-5.406-3.126-6.139-4.032-9.526-9.684-9.936-11.08 0 0 3.87 4.498 10.716 6.514 0 0 5.501 1.085 2.376 5 0 0 1.334 1.715 4.232 2.244.15-.78.264-1.367 1.555-1.419v.011c1.291.116 1.489.853 1.489 1.76 0 .904-.198 1.644-1.489 1.76zm0-4.82s-2.86-.815-2.228-3.295c.633-2.481 1.976-3.371 2.312-7.095 0 0 1.36 2.21 1.547 5.7.185 3.489-1.63 4.536-1.63 4.536zM19.22 14.203h-.022c-1.747 2.54-4.72 1.899-4.72 1.899C8.004 14.55-1 14.005-1 14.005c8.11-.813 13.32-1.843 16.036-2.505 2.207-.534 3.702 1.435 4.183 2.704zm10.935 2.77v.154s1.813 1.049 1.628 4.537c-.187 3.49-1.461 5.699-1.461 5.699-.335-3.72-1.717-4.613-2.35-7.096-.633-2.48 2.183-3.295 2.183-3.295zM269 12.934v2.54h-12.826a53.92 53.92 0 0 0-2.65.563s-1.774.414-3.386-.563h-5.894c.762.485 1.606 1.066 2.545 1.682 6.138 4.033 9.536 9.445 9.947 10.842 0 0-3.86-4.474-10.705-6.49 0 0-5.48-1.083-2.356-5 0 0-.387-.496-1.18-1.034h-3.37c-.212.227-.545.378-1.11.402v-.01c-.503-.044-.836-.186-1.06-.392H32.735v-2.54h204.048c.21-.315.582-.529 1.23-.587v-.01c0 .03.463.258.872.597h2.987c1.2-.654 1.754-1.389 1.754-1.389-3.125-3.916 2.38-4.97 2.38-4.97C252.853 4.562 256.724.13 256.724.13c-.41 1.395-3.797 6.916-9.935 10.948-1.343.881-2.494 1.364-3.483 1.857h6.203c.745-.973 1.923-1.817 3.455-1.447 1.714.417 4.427.925 8.228 1.447zm-32.677-6.579c.187-3.489 1.398-5.7 1.398-5.7.335 3.725 1.76 4.615 2.393 7.096.632 2.48-2.1 3.294-2.1 3.294v-.153s-1.875-1.047-1.69-4.537zm3.856 13.912c-.633 2.483-2.04 3.375-2.374 7.096 0 0-1.32-2.21-1.506-5.699-.185-3.488 1.716-4.537 1.716-4.537v-.155s2.797.815 2.164 3.295z"/></g></g></svg>